<mxfile host="app.diagrams.net" agent="Mozilla/5.0 (Windows NT 10.0; Win64; x64) AppleWebKit/537.36 (KHTML, like Gecko) Chrome/131.0.0.0 Safari/537.36 Edg/131.0.0.0" version="24.8.8">
  <diagram id="C5RBs43oDa-KdzZeNtuy" name="Page-1">
    <mxGraphModel dx="1674" dy="877" grid="1" gridSize="10" guides="1" tooltips="1" connect="1" arrows="1" fold="1" page="1" pageScale="1" pageWidth="827" pageHeight="1169" math="0" shadow="0">
      <root>
        <mxCell id="WIyWlLk6GJQsqaUBKTNV-0" />
        <mxCell id="WIyWlLk6GJQsqaUBKTNV-1" parent="WIyWlLk6GJQsqaUBKTNV-0" />
        <mxCell id="p3PwDsmP71-3m6JrjDb_-6" value="" style="edgeStyle=orthogonalEdgeStyle;rounded=0;orthogonalLoop=1;jettySize=auto;html=1;" parent="WIyWlLk6GJQsqaUBKTNV-1" source="WIyWlLk6GJQsqaUBKTNV-6" target="p3PwDsmP71-3m6JrjDb_-4" edge="1">
          <mxGeometry relative="1" as="geometry" />
        </mxCell>
        <mxCell id="p3PwDsmP71-3m6JrjDb_-7" value="Yes" style="edgeLabel;html=1;align=center;verticalAlign=middle;resizable=0;points=[];" parent="p3PwDsmP71-3m6JrjDb_-6" vertex="1" connectable="0">
          <mxGeometry x="-0.52" y="-3" relative="1" as="geometry">
            <mxPoint as="offset" />
          </mxGeometry>
        </mxCell>
        <mxCell id="p3PwDsmP71-3m6JrjDb_-9" style="edgeStyle=orthogonalEdgeStyle;rounded=0;orthogonalLoop=1;jettySize=auto;html=1;exitX=1;exitY=0.5;exitDx=0;exitDy=0;entryX=0.5;entryY=0;entryDx=0;entryDy=0;" parent="WIyWlLk6GJQsqaUBKTNV-1" source="WIyWlLk6GJQsqaUBKTNV-6" target="p3PwDsmP71-3m6JrjDb_-8" edge="1">
          <mxGeometry relative="1" as="geometry" />
        </mxCell>
        <mxCell id="p3PwDsmP71-3m6JrjDb_-11" value="No" style="edgeLabel;html=1;align=center;verticalAlign=middle;resizable=0;points=[];" parent="p3PwDsmP71-3m6JrjDb_-9" vertex="1" connectable="0">
          <mxGeometry x="0.3333" y="2" relative="1" as="geometry">
            <mxPoint as="offset" />
          </mxGeometry>
        </mxCell>
        <mxCell id="WIyWlLk6GJQsqaUBKTNV-6" value="是否自营可分摊？" style="rhombus;whiteSpace=wrap;html=1;shadow=0;fontFamily=Helvetica;fontSize=12;align=center;strokeWidth=1;spacing=6;spacingTop=-4;" parent="WIyWlLk6GJQsqaUBKTNV-1" vertex="1">
          <mxGeometry x="135" y="320" width="140" height="80" as="geometry" />
        </mxCell>
        <mxCell id="p3PwDsmP71-3m6JrjDb_-33" style="edgeStyle=orthogonalEdgeStyle;rounded=0;orthogonalLoop=1;jettySize=auto;html=1;exitX=0.5;exitY=1;exitDx=0;exitDy=0;entryX=0.5;entryY=0;entryDx=0;entryDy=0;" parent="WIyWlLk6GJQsqaUBKTNV-1" source="p3PwDsmP71-3m6JrjDb_-4" target="p3PwDsmP71-3m6JrjDb_-32" edge="1">
          <mxGeometry relative="1" as="geometry">
            <Array as="points">
              <mxPoint x="205" y="730" />
              <mxPoint x="740" y="730" />
            </Array>
          </mxGeometry>
        </mxCell>
        <mxCell id="p3PwDsmP71-3m6JrjDb_-4" value="自营可分摊商品" style="rounded=1;whiteSpace=wrap;html=1;" parent="WIyWlLk6GJQsqaUBKTNV-1" vertex="1">
          <mxGeometry x="145" y="640" width="120" height="30" as="geometry" />
        </mxCell>
        <mxCell id="p3PwDsmP71-3m6JrjDb_-13" style="edgeStyle=orthogonalEdgeStyle;rounded=0;orthogonalLoop=1;jettySize=auto;html=1;exitX=0.5;exitY=1;exitDx=0;exitDy=0;" parent="WIyWlLk6GJQsqaUBKTNV-1" source="p3PwDsmP71-3m6JrjDb_-8" target="p3PwDsmP71-3m6JrjDb_-12" edge="1">
          <mxGeometry relative="1" as="geometry" />
        </mxCell>
        <mxCell id="p3PwDsmP71-3m6JrjDb_-14" value="Yes" style="edgeLabel;html=1;align=center;verticalAlign=middle;resizable=0;points=[];" parent="p3PwDsmP71-3m6JrjDb_-13" vertex="1" connectable="0">
          <mxGeometry x="-0.2889" y="4" relative="1" as="geometry">
            <mxPoint as="offset" />
          </mxGeometry>
        </mxCell>
        <mxCell id="p3PwDsmP71-3m6JrjDb_-19" style="edgeStyle=orthogonalEdgeStyle;rounded=0;orthogonalLoop=1;jettySize=auto;html=1;exitX=1;exitY=0.5;exitDx=0;exitDy=0;entryX=0.5;entryY=0;entryDx=0;entryDy=0;" parent="WIyWlLk6GJQsqaUBKTNV-1" source="p3PwDsmP71-3m6JrjDb_-8" target="p3PwDsmP71-3m6JrjDb_-18" edge="1">
          <mxGeometry relative="1" as="geometry" />
        </mxCell>
        <mxCell id="p3PwDsmP71-3m6JrjDb_-20" value="No" style="edgeLabel;html=1;align=center;verticalAlign=middle;resizable=0;points=[];" parent="p3PwDsmP71-3m6JrjDb_-19" vertex="1" connectable="0">
          <mxGeometry x="0.3838" y="-1" relative="1" as="geometry">
            <mxPoint as="offset" />
          </mxGeometry>
        </mxCell>
        <mxCell id="p3PwDsmP71-3m6JrjDb_-8" value="是否联营可分摊" style="rhombus;whiteSpace=wrap;html=1;" parent="WIyWlLk6GJQsqaUBKTNV-1" vertex="1">
          <mxGeometry x="345" y="435" width="130" height="70" as="geometry" />
        </mxCell>
        <mxCell id="p3PwDsmP71-3m6JrjDb_-34" style="edgeStyle=orthogonalEdgeStyle;rounded=0;orthogonalLoop=1;jettySize=auto;html=1;exitX=0.5;exitY=1;exitDx=0;exitDy=0;entryX=0.5;entryY=0;entryDx=0;entryDy=0;" parent="WIyWlLk6GJQsqaUBKTNV-1" source="p3PwDsmP71-3m6JrjDb_-12" target="p3PwDsmP71-3m6JrjDb_-32" edge="1">
          <mxGeometry relative="1" as="geometry">
            <mxPoint x="471" y="760" as="targetPoint" />
            <Array as="points">
              <mxPoint x="410" y="730" />
              <mxPoint x="740" y="730" />
            </Array>
          </mxGeometry>
        </mxCell>
        <mxCell id="p3PwDsmP71-3m6JrjDb_-12" value="联营可分摊商品" style="rounded=1;whiteSpace=wrap;html=1;" parent="WIyWlLk6GJQsqaUBKTNV-1" vertex="1">
          <mxGeometry x="350" y="640" width="120" height="30" as="geometry" />
        </mxCell>
        <mxCell id="p3PwDsmP71-3m6JrjDb_-28" style="edgeStyle=orthogonalEdgeStyle;rounded=0;orthogonalLoop=1;jettySize=auto;html=1;exitX=1;exitY=0.5;exitDx=0;exitDy=0;entryX=0.5;entryY=0;entryDx=0;entryDy=0;" parent="WIyWlLk6GJQsqaUBKTNV-1" source="p3PwDsmP71-3m6JrjDb_-18" target="p3PwDsmP71-3m6JrjDb_-24" edge="1">
          <mxGeometry relative="1" as="geometry" />
        </mxCell>
        <mxCell id="p3PwDsmP71-3m6JrjDb_-39" value="No" style="edgeLabel;html=1;align=center;verticalAlign=middle;resizable=0;points=[];" parent="p3PwDsmP71-3m6JrjDb_-28" vertex="1" connectable="0">
          <mxGeometry x="0.5015" y="1" relative="1" as="geometry">
            <mxPoint as="offset" />
          </mxGeometry>
        </mxCell>
        <mxCell id="p3PwDsmP71-3m6JrjDb_-29" value="" style="edgeStyle=orthogonalEdgeStyle;rounded=0;orthogonalLoop=1;jettySize=auto;html=1;" parent="WIyWlLk6GJQsqaUBKTNV-1" source="p3PwDsmP71-3m6JrjDb_-18" target="p3PwDsmP71-3m6JrjDb_-23" edge="1">
          <mxGeometry relative="1" as="geometry" />
        </mxCell>
        <mxCell id="p3PwDsmP71-3m6JrjDb_-38" value="Yes" style="edgeLabel;html=1;align=center;verticalAlign=middle;resizable=0;points=[];" parent="p3PwDsmP71-3m6JrjDb_-29" vertex="1" connectable="0">
          <mxGeometry x="-0.4118" y="2" relative="1" as="geometry">
            <mxPoint y="1" as="offset" />
          </mxGeometry>
        </mxCell>
        <mxCell id="p3PwDsmP71-3m6JrjDb_-18" value="是否有商品？" style="rhombus;whiteSpace=wrap;html=1;" parent="WIyWlLk6GJQsqaUBKTNV-1" vertex="1">
          <mxGeometry x="495" y="542.5" width="120" height="55" as="geometry" />
        </mxCell>
        <mxCell id="p3PwDsmP71-3m6JrjDb_-35" style="edgeStyle=orthogonalEdgeStyle;rounded=0;orthogonalLoop=1;jettySize=auto;html=1;exitX=0.5;exitY=1;exitDx=0;exitDy=0;entryX=0.5;entryY=0;entryDx=0;entryDy=0;" parent="WIyWlLk6GJQsqaUBKTNV-1" source="p3PwDsmP71-3m6JrjDb_-23" target="p3PwDsmP71-3m6JrjDb_-32" edge="1">
          <mxGeometry relative="1" as="geometry">
            <Array as="points">
              <mxPoint x="555" y="730" />
              <mxPoint x="740" y="730" />
            </Array>
          </mxGeometry>
        </mxCell>
        <mxCell id="p3PwDsmP71-3m6JrjDb_-23" value="标记为：挂单无商品" style="rounded=1;whiteSpace=wrap;html=1;" parent="WIyWlLk6GJQsqaUBKTNV-1" vertex="1">
          <mxGeometry x="492.5" y="640" width="125" height="30" as="geometry" />
        </mxCell>
        <mxCell id="p3PwDsmP71-3m6JrjDb_-36" style="edgeStyle=orthogonalEdgeStyle;rounded=0;orthogonalLoop=1;jettySize=auto;html=1;exitX=0.5;exitY=1;exitDx=0;exitDy=0;entryX=0.5;entryY=0;entryDx=0;entryDy=0;" parent="WIyWlLk6GJQsqaUBKTNV-1" source="p3PwDsmP71-3m6JrjDb_-24" target="p3PwDsmP71-3m6JrjDb_-32" edge="1">
          <mxGeometry relative="1" as="geometry">
            <Array as="points">
              <mxPoint x="714" y="730" />
              <mxPoint x="740" y="730" />
            </Array>
          </mxGeometry>
        </mxCell>
        <mxCell id="p3PwDsmP71-3m6JrjDb_-24" value="标记为：挂单无销售" style="rounded=1;whiteSpace=wrap;html=1;" parent="WIyWlLk6GJQsqaUBKTNV-1" vertex="1">
          <mxGeometry x="651" y="640" width="125" height="30" as="geometry" />
        </mxCell>
        <mxCell id="cuTJXf23_0xr2EWPJ04x-45" style="edgeStyle=none;curved=1;rounded=0;orthogonalLoop=1;jettySize=auto;html=1;exitX=0.5;exitY=1;exitDx=0;exitDy=0;fontSize=12;startSize=8;endSize=8;" edge="1" parent="WIyWlLk6GJQsqaUBKTNV-1" source="p3PwDsmP71-3m6JrjDb_-32" target="cuTJXf23_0xr2EWPJ04x-44">
          <mxGeometry relative="1" as="geometry" />
        </mxCell>
        <mxCell id="p3PwDsmP71-3m6JrjDb_-32" value="合并比例分摊明细和补差明细" style="rounded=1;whiteSpace=wrap;html=1;" parent="WIyWlLk6GJQsqaUBKTNV-1" vertex="1">
          <mxGeometry x="680" y="820" width="120" height="70" as="geometry" />
        </mxCell>
        <mxCell id="-HyJnITgvamLCmjTLoUI-0" value="批次销售/&lt;br&gt;净进货金额" style="shape=cylinder3;whiteSpace=wrap;html=1;boundedLbl=1;backgroundOutline=1;size=15;" parent="WIyWlLk6GJQsqaUBKTNV-1" vertex="1">
          <mxGeometry x="51" y="310" width="70" height="100" as="geometry" />
        </mxCell>
        <mxCell id="-HyJnITgvamLCmjTLoUI-1" value="联营销售" style="shape=cylinder3;whiteSpace=wrap;html=1;boundedLbl=1;backgroundOutline=1;size=15;" parent="WIyWlLk6GJQsqaUBKTNV-1" vertex="1">
          <mxGeometry x="275" y="430" width="60" height="80" as="geometry" />
        </mxCell>
        <mxCell id="-HyJnITgvamLCmjTLoUI-2" value="日结" style="shape=cylinder3;whiteSpace=wrap;html=1;boundedLbl=1;backgroundOutline=1;size=15;" parent="WIyWlLk6GJQsqaUBKTNV-1" vertex="1">
          <mxGeometry x="433" y="535" width="52.5" height="70" as="geometry" />
        </mxCell>
        <mxCell id="cuTJXf23_0xr2EWPJ04x-11" style="edgeStyle=none;curved=1;rounded=0;orthogonalLoop=1;jettySize=auto;html=1;exitX=0.5;exitY=1;exitDx=0;exitDy=0;fontSize=12;startSize=8;endSize=8;" edge="1" parent="WIyWlLk6GJQsqaUBKTNV-1" target="cuTJXf23_0xr2EWPJ04x-10">
          <mxGeometry relative="1" as="geometry">
            <mxPoint x="740" y="90" as="sourcePoint" />
          </mxGeometry>
        </mxCell>
        <mxCell id="cuTJXf23_0xr2EWPJ04x-18" style="edgeStyle=orthogonalEdgeStyle;rounded=0;orthogonalLoop=1;jettySize=auto;html=1;exitX=1;exitY=0.5;exitDx=0;exitDy=0;exitPerimeter=0;fontSize=12;startSize=8;endSize=8;entryX=0.5;entryY=0;entryDx=0;entryDy=0;" edge="1" parent="WIyWlLk6GJQsqaUBKTNV-1" source="cuTJXf23_0xr2EWPJ04x-10" target="cuTJXf23_0xr2EWPJ04x-23">
          <mxGeometry relative="1" as="geometry">
            <mxPoint x="930" y="270" as="targetPoint" />
          </mxGeometry>
        </mxCell>
        <mxCell id="cuTJXf23_0xr2EWPJ04x-21" value="Yes" style="edgeLabel;html=1;align=center;verticalAlign=middle;resizable=0;points=[];fontSize=12;" vertex="1" connectable="0" parent="cuTJXf23_0xr2EWPJ04x-18">
          <mxGeometry x="-0.2701" y="2" relative="1" as="geometry">
            <mxPoint as="offset" />
          </mxGeometry>
        </mxCell>
        <mxCell id="cuTJXf23_0xr2EWPJ04x-10" value="是否为带明细补差费用？" style="strokeWidth=2;html=1;shape=mxgraph.flowchart.decision;whiteSpace=wrap;" vertex="1" parent="WIyWlLk6GJQsqaUBKTNV-1">
          <mxGeometry x="630" y="150" width="220" height="70" as="geometry" />
        </mxCell>
        <mxCell id="cuTJXf23_0xr2EWPJ04x-15" value="" style="edgeStyle=orthogonalEdgeStyle;orthogonalLoop=1;jettySize=auto;html=1;rounded=0;fontSize=12;startSize=8;endSize=8;entryX=0.5;entryY=0;entryDx=0;entryDy=0;" edge="1" parent="WIyWlLk6GJQsqaUBKTNV-1" target="WIyWlLk6GJQsqaUBKTNV-6">
          <mxGeometry width="120" relative="1" as="geometry">
            <mxPoint x="630" y="184.5" as="sourcePoint" />
            <mxPoint x="750" y="184.5" as="targetPoint" />
          </mxGeometry>
        </mxCell>
        <mxCell id="cuTJXf23_0xr2EWPJ04x-16" value="No" style="edgeLabel;html=1;align=center;verticalAlign=middle;resizable=0;points=[];fontSize=12;" vertex="1" connectable="0" parent="cuTJXf23_0xr2EWPJ04x-15">
          <mxGeometry x="-0.4143" relative="1" as="geometry">
            <mxPoint as="offset" />
          </mxGeometry>
        </mxCell>
        <mxCell id="cuTJXf23_0xr2EWPJ04x-33" style="edgeStyle=none;curved=1;rounded=0;orthogonalLoop=1;jettySize=auto;html=1;entryX=0.5;entryY=0;entryDx=0;entryDy=0;fontSize=12;startSize=8;endSize=8;" edge="1" parent="WIyWlLk6GJQsqaUBKTNV-1" source="cuTJXf23_0xr2EWPJ04x-23" target="cuTJXf23_0xr2EWPJ04x-32">
          <mxGeometry relative="1" as="geometry" />
        </mxCell>
        <mxCell id="cuTJXf23_0xr2EWPJ04x-23" value="拼接直降/捆绑补差" style="rounded=1;whiteSpace=wrap;html=1;" vertex="1" parent="WIyWlLk6GJQsqaUBKTNV-1">
          <mxGeometry x="870" y="320" width="125" height="50" as="geometry" />
        </mxCell>
        <mxCell id="cuTJXf23_0xr2EWPJ04x-26" value="23年优惠&lt;div&gt;方案补差&lt;/div&gt;" style="strokeWidth=2;html=1;shape=mxgraph.flowchart.direct_data;whiteSpace=wrap;" vertex="1" parent="WIyWlLk6GJQsqaUBKTNV-1">
          <mxGeometry x="1020" y="527.5" width="110" height="35" as="geometry" />
        </mxCell>
        <mxCell id="cuTJXf23_0xr2EWPJ04x-30" value="24年优惠方案补差" style="strokeWidth=2;html=1;shape=mxgraph.flowchart.database;whiteSpace=wrap;" vertex="1" parent="WIyWlLk6GJQsqaUBKTNV-1">
          <mxGeometry x="1020" y="395" width="60" height="80" as="geometry" />
        </mxCell>
        <mxCell id="cuTJXf23_0xr2EWPJ04x-31" value="大宗团购补差" style="strokeWidth=2;html=1;shape=mxgraph.flowchart.database;whiteSpace=wrap;" vertex="1" parent="WIyWlLk6GJQsqaUBKTNV-1">
          <mxGeometry x="1020" y="615" width="60" height="80" as="geometry" />
        </mxCell>
        <mxCell id="cuTJXf23_0xr2EWPJ04x-35" style="edgeStyle=none;curved=1;rounded=0;orthogonalLoop=1;jettySize=auto;html=1;fontSize=12;startSize=8;endSize=8;" edge="1" parent="WIyWlLk6GJQsqaUBKTNV-1" source="cuTJXf23_0xr2EWPJ04x-32" target="cuTJXf23_0xr2EWPJ04x-34">
          <mxGeometry relative="1" as="geometry" />
        </mxCell>
        <mxCell id="cuTJXf23_0xr2EWPJ04x-32" value="拼接24年优惠方案补差" style="rounded=1;whiteSpace=wrap;html=1;" vertex="1" parent="WIyWlLk6GJQsqaUBKTNV-1">
          <mxGeometry x="870" y="420" width="125" height="50" as="geometry" />
        </mxCell>
        <mxCell id="cuTJXf23_0xr2EWPJ04x-39" style="edgeStyle=none;curved=1;rounded=0;orthogonalLoop=1;jettySize=auto;html=1;entryX=0.5;entryY=0;entryDx=0;entryDy=0;fontSize=12;startSize=8;endSize=8;" edge="1" parent="WIyWlLk6GJQsqaUBKTNV-1" source="cuTJXf23_0xr2EWPJ04x-34" target="cuTJXf23_0xr2EWPJ04x-37">
          <mxGeometry relative="1" as="geometry" />
        </mxCell>
        <mxCell id="cuTJXf23_0xr2EWPJ04x-34" value="拼接23年优惠方案补差" style="rounded=1;whiteSpace=wrap;html=1;" vertex="1" parent="WIyWlLk6GJQsqaUBKTNV-1">
          <mxGeometry x="870" y="520" width="125" height="50" as="geometry" />
        </mxCell>
        <mxCell id="cuTJXf23_0xr2EWPJ04x-36" value="直降/捆绑补差" style="strokeWidth=2;html=1;shape=mxgraph.flowchart.database;whiteSpace=wrap;" vertex="1" parent="WIyWlLk6GJQsqaUBKTNV-1">
          <mxGeometry x="1020" y="297.5" width="60" height="75" as="geometry" />
        </mxCell>
        <mxCell id="cuTJXf23_0xr2EWPJ04x-40" style="edgeStyle=orthogonalEdgeStyle;rounded=0;orthogonalLoop=1;jettySize=auto;html=1;exitX=0.5;exitY=1;exitDx=0;exitDy=0;entryX=0.5;entryY=0;entryDx=0;entryDy=0;fontSize=12;startSize=8;endSize=8;" edge="1" parent="WIyWlLk6GJQsqaUBKTNV-1" source="cuTJXf23_0xr2EWPJ04x-37" target="p3PwDsmP71-3m6JrjDb_-32">
          <mxGeometry relative="1" as="geometry">
            <Array as="points">
              <mxPoint x="933" y="730" />
              <mxPoint x="740" y="730" />
            </Array>
          </mxGeometry>
        </mxCell>
        <mxCell id="cuTJXf23_0xr2EWPJ04x-37" value="拼接大宗团购补差" style="rounded=1;whiteSpace=wrap;html=1;" vertex="1" parent="WIyWlLk6GJQsqaUBKTNV-1">
          <mxGeometry x="870" y="630" width="125" height="50" as="geometry" />
        </mxCell>
        <mxCell id="cuTJXf23_0xr2EWPJ04x-41" value="营业外费用单" style="strokeWidth=2;html=1;shape=mxgraph.flowchart.document2;whiteSpace=wrap;size=0.25;" vertex="1" parent="WIyWlLk6GJQsqaUBKTNV-1">
          <mxGeometry x="810" y="90" width="80" height="60" as="geometry" />
        </mxCell>
        <mxCell id="cuTJXf23_0xr2EWPJ04x-42" value="开始" style="strokeWidth=2;html=1;shape=mxgraph.flowchart.terminator;whiteSpace=wrap;" vertex="1" parent="WIyWlLk6GJQsqaUBKTNV-1">
          <mxGeometry x="690" y="50" width="100" height="40" as="geometry" />
        </mxCell>
        <mxCell id="cuTJXf23_0xr2EWPJ04x-44" value="结束" style="strokeWidth=2;html=1;shape=mxgraph.flowchart.terminator;whiteSpace=wrap;" vertex="1" parent="WIyWlLk6GJQsqaUBKTNV-1">
          <mxGeometry x="690" y="930" width="100" height="40" as="geometry" />
        </mxCell>
      </root>
    </mxGraphModel>
  </diagram>
</mxfile>
